<?xml version="1.0" encoding="UTF-8" standalone="no"?><svg xmlns="http://www.w3.org/2000/svg" xmlns:xlink="http://www.w3.org/1999/xlink" contentScriptType="application/ecmascript" contentStyleType="text/css" height="228.125px" preserveAspectRatio="none" style="width:525px;height:228px;" version="1.1" viewBox="0 0 525 228" width="525px" zoomAndPan="magnify"><defs/><g><!--MD5=[791f55d8f7bd660adaade54087ca4a22]
class Identifiable--><rect codeLine="5" fill="#FFFFFF" height="75.8057" id="Identifiable" rx="4.1667" ry="4.1667" style="stroke:#55B2DE;stroke-width:1.0416666666666667;" width="114.5833" x="403.6458" y="7.2917"/><rect fill="#227FAB" height="35.3841" rx="4.1667" ry="4.1667" style="stroke:#227FAB;stroke-width:1.0416666666666667;" width="114.5833" x="403.6458" y="7.2917"/><rect fill="#227FAB" height="4.1667" style="stroke:#227FAB;stroke-width:1.0416666666666667;" width="114.5833" x="403.6458" y="38.5091"/><rect codeLine="5" fill="none" height="75.8057" id="Identifiable" rx="4.1667" ry="4.1667" style="stroke:#55B2DE;stroke-width:1.0416666666666667;" width="114.5833" x="403.6458" y="7.2917"/><ellipse cx="418.2292" cy="24.9837" fill="#A30000" rx="10.4167" ry="10.4167" style="stroke:#D63333;stroke-width:1.0416666666666667;"/><path d="M415.1204,22.1517 L415.1204,20.5566 L420.5404,20.5566 L420.5404,22.1517 L418.7337,22.1517 L418.7337,28.0762 L420.5404,28.0762 L420.5404,29.6712 L415.1204,29.6712 L415.1204,28.0762 L416.9271,28.0762 L416.9271,22.1517 L415.1204,22.1517 Z " fill="#000000"/><text fill="#2A9FD6" font-family="Verdana" font-size="12.5" font-style="italic" lengthAdjust="spacing" textLength="72.9167" x="436.9792" y="29.3111">Identifiable</text><line style="stroke:#55B2DE;stroke-width:1.0416666666666667;" x1="404.6875" x2="517.1875" y1="42.6758" y2="42.6758"/><line style="stroke:#55B2DE;stroke-width:1.0416666666666667;" x1="404.6875" x2="517.1875" y1="51.0091" y2="51.0091"/><ellipse cx="415.1042" cy="62.4674" fill="#84BE84" rx="3.125" ry="3.125" style="stroke:#038048;stroke-width:1.0416666666666667;"/><text fill="#ADAFAE" font-family="Verdana" font-size="11.4583" lengthAdjust="spacing" textLength="78.125" x="428.6458" y="71.02">getId() : UUID</text><!--MD5=[ee18a90ac95d90fc062086dbcc0c5e36]
class JPAEntityBase--><rect codeLine="9" fill="#FFFFFF" height="52.0508" id="JPAEntityBase" rx="4.1667" ry="4.1667" style="stroke:#55B2DE;stroke-width:1.0416666666666667;" width="130.2083" x="236.4583" y="19.2708"/><rect fill="#227FAB" height="35.3841" rx="4.1667" ry="4.1667" style="stroke:#227FAB;stroke-width:1.0416666666666667;" width="130.2083" x="236.4583" y="19.2708"/><rect fill="#227FAB" height="4.1667" style="stroke:#227FAB;stroke-width:1.0416666666666667;" width="130.2083" x="236.4583" y="50.4883"/><rect codeLine="9" fill="none" height="52.0508" id="JPAEntityBase" rx="4.1667" ry="4.1667" style="stroke:#55B2DE;stroke-width:1.0416666666666667;" width="130.2083" x="236.4583" y="19.2708"/><ellipse cx="251.0417" cy="36.9629" fill="#5F8F00" rx="10.4167" ry="10.4167" style="stroke:#92C233;stroke-width:1.0416666666666667;"/><path d="M250.6348,33.9193 L249.7884,37.6465 L251.4974,37.6465 L250.6348,33.9193 Z M249.5443,32.2754 L251.7415,32.2754 L254.1992,41.39 L252.3926,41.39 L251.8392,39.1439 L249.4303,39.1439 L248.877,41.39 L247.0703,41.39 L249.5443,32.2754 Z " fill="#000000"/><text fill="#2A9FD6" font-family="Verdana" font-size="12.5" font-style="italic" lengthAdjust="spacing" textLength="88.5417" x="269.7917" y="41.2903">JPAEntityBase</text><line style="stroke:#55B2DE;stroke-width:1.0416666666666667;" x1="237.5" x2="365.625" y1="54.6549" y2="54.6549"/><line style="stroke:#55B2DE;stroke-width:1.0416666666666667;" x1="237.5" x2="365.625" y1="62.9883" y2="62.9883"/><!--MD5=[3fc6b740855d64b0cc767fac270895d9]
class AuthnIdentity--><rect codeLine="11" fill="#FFFFFF" height="75.8057" id="AuthnIdentity" rx="4.1667" ry="4.1667" style="stroke:#55B2DE;stroke-width:1.0416666666666667;" width="153.125" x="7.2917" y="145.8333"/><rect fill="#227FAB" height="35.3841" rx="4.1667" ry="4.1667" style="stroke:#227FAB;stroke-width:1.0416666666666667;" width="153.125" x="7.2917" y="145.8333"/><rect fill="#227FAB" height="4.1667" style="stroke:#227FAB;stroke-width:1.0416666666666667;" width="153.125" x="7.2917" y="177.0508"/><rect codeLine="11" fill="none" height="75.8057" id="AuthnIdentity" rx="4.1667" ry="4.1667" style="stroke:#55B2DE;stroke-width:1.0416666666666667;" width="153.125" x="7.2917" y="145.8333"/><ellipse cx="33.125" cy="163.5254" fill="#777777" rx="10.4167" ry="10.4167" style="stroke:#444444;stroke-width:1.0416666666666667;"/><path d="M35.0293,167.9525 Q34.6061,168.1641 34.1341,168.278 Q33.6621,168.3919 33.1576,168.3919 Q31.3021,168.3919 30.3255,167.1875 Q29.3652,165.9668 29.3652,163.6719 Q29.3652,161.3607 30.3255,160.1563 Q31.3021,158.9355 33.1576,158.9355 Q33.6621,158.9355 34.1341,159.0495 Q34.6224,159.1471 35.0293,159.375 L35.0293,161.377 Q34.5736,160.9538 34.1341,160.7585 Q33.6947,160.5469 33.2389,160.5469 Q32.2461,160.5469 31.7415,161.3444 Q31.237,162.1257 31.237,163.6719 Q31.237,165.2018 31.7415,165.9831 Q32.2461,166.7643 33.2389,166.7643 Q33.6947,166.7643 34.1341,166.569 Q34.5736,166.3737 35.0293,165.9505 L35.0293,167.9525 Z " fill="#000000"/><text fill="#2A9FD6" font-family="Verdana" font-size="12.5" lengthAdjust="spacing" textLength="86.4583" x="54.375" y="167.8528">AuthnIdentity</text><line style="stroke:#55B2DE;stroke-width:1.0416666666666667;" x1="8.3333" x2="159.375" y1="181.2174" y2="181.2174"/><rect fill="none" height="6.25" style="stroke:#C82930;stroke-width:1.0416666666666667;" width="6.25" x="15.625" y="189.5508"/><text fill="#ADAFAE" font-family="Verdana" font-size="11.4583" lengthAdjust="spacing" textLength="116.6667" x="32.2917" y="201.2283">foreignUserId: UUID</text><line style="stroke:#55B2DE;stroke-width:1.0416666666666667;" x1="8.3333" x2="159.375" y1="213.3057" y2="213.3057"/><!--MD5=[3fd616f346a44cd59a91eb10b19e157c]
class User--><rect fill="#FFFFFF" height="52.0508" id="User" rx="4.1667" ry="4.1667" style="stroke:#55B2DE;stroke-width:1.0416666666666667;" width="71.875" x="128.125" y="19.2708"/><rect fill="#227FAB" height="35.3841" rx="4.1667" ry="4.1667" style="stroke:#227FAB;stroke-width:1.0416666666666667;" width="71.875" x="128.125" y="19.2708"/><rect fill="#227FAB" height="4.1667" style="stroke:#227FAB;stroke-width:1.0416666666666667;" width="71.875" x="128.125" y="50.4883"/><rect fill="none" height="52.0508" id="User" rx="4.1667" ry="4.1667" style="stroke:#55B2DE;stroke-width:1.0416666666666667;" width="71.875" x="128.125" y="19.2708"/><ellipse cx="142.7083" cy="36.9629" fill="#777777" rx="10.4167" ry="10.4167" style="stroke:#444444;stroke-width:1.0416666666666667;"/><path d="M144.6126,41.39 Q144.1895,41.6016 143.7174,41.7155 Q143.2454,41.8294 142.7409,41.8294 Q140.8854,41.8294 139.9089,40.625 Q138.9486,39.4043 138.9486,37.1094 Q138.9486,34.7982 139.9089,33.5938 Q140.8854,32.373 142.7409,32.373 Q143.2454,32.373 143.7174,32.487 Q144.2057,32.5846 144.6126,32.8125 L144.6126,34.8145 Q144.1569,34.3913 143.7174,34.196 Q143.278,33.9844 142.8223,33.9844 Q141.8294,33.9844 141.3249,34.7819 Q140.8203,35.5632 140.8203,37.1094 Q140.8203,38.6393 141.3249,39.4206 Q141.8294,40.2018 142.8223,40.2018 Q143.278,40.2018 143.7174,40.0065 Q144.1569,39.8112 144.6126,39.388 L144.6126,41.39 Z " fill="#000000"/><text fill="#2A9FD6" font-family="Verdana" font-size="12.5" lengthAdjust="spacing" textLength="30.2083" x="161.4583" y="41.2903">User</text><line style="stroke:#55B2DE;stroke-width:1.0416666666666667;" x1="129.1667" x2="198.9583" y1="54.6549" y2="54.6549"/><line style="stroke:#55B2DE;stroke-width:1.0416666666666667;" x1="129.1667" x2="198.9583" y1="62.9883" y2="62.9883"/><!--MD5=[fb0932da17f9982e4848347a102654e2]
class Settings--><rect fill="#FFFFFF" height="52.0508" id="Settings" rx="4.1667" ry="4.1667" style="stroke:#55B2DE;stroke-width:1.0416666666666667;" width="95.8333" x="197.3958" y="157.8125"/><rect fill="#227FAB" height="35.3841" rx="4.1667" ry="4.1667" style="stroke:#227FAB;stroke-width:1.0416666666666667;" width="95.8333" x="197.3958" y="157.8125"/><rect fill="#227FAB" height="4.1667" style="stroke:#227FAB;stroke-width:1.0416666666666667;" width="95.8333" x="197.3958" y="189.0299"/><rect fill="none" height="52.0508" id="Settings" rx="4.1667" ry="4.1667" style="stroke:#55B2DE;stroke-width:1.0416666666666667;" width="95.8333" x="197.3958" y="157.8125"/><ellipse cx="211.9792" cy="175.5046" fill="#777777" rx="10.4167" ry="10.4167" style="stroke:#444444;stroke-width:1.0416666666666667;"/><path d="M213.8835,179.9316 Q213.4603,180.1432 212.9883,180.2572 Q212.5163,180.3711 212.0117,180.3711 Q210.1563,180.3711 209.1797,179.1667 Q208.2194,177.946 208.2194,175.651 Q208.2194,173.3398 209.1797,172.1354 Q210.1563,170.9147 212.0117,170.9147 Q212.5163,170.9147 212.9883,171.0286 Q213.4766,171.1263 213.8835,171.3542 L213.8835,173.3561 Q213.4277,172.9329 212.9883,172.7376 Q212.5488,172.526 212.0931,172.526 Q211.1003,172.526 210.5957,173.3236 Q210.0911,174.1048 210.0911,175.651 Q210.0911,177.181 210.5957,177.9622 Q211.1003,178.7435 212.0931,178.7435 Q212.5488,178.7435 212.9883,178.5482 Q213.4277,178.3529 213.8835,177.9297 L213.8835,179.9316 Z " fill="#000000"/><text fill="#2A9FD6" font-family="Verdana" font-size="12.5" lengthAdjust="spacing" textLength="54.1667" x="230.7292" y="179.8319">Settings</text><line style="stroke:#55B2DE;stroke-width:1.0416666666666667;" x1="198.4375" x2="292.1875" y1="193.1966" y2="193.1966"/><line style="stroke:#55B2DE;stroke-width:1.0416666666666667;" x1="198.4375" x2="292.1875" y1="201.5299" y2="201.5299"/><!--MD5=[136e75e9f3c0869e044cccfeba471e72]
link JPAEntityBase to Identifiable--><path codeLine="15" d="M366.9271,45.3125 C372.0417,45.3125 377.1563,45.3125 382.2708,45.3125 " fill="none" id="JPAEntityBase-to-Identifiable" style="stroke:#2A9FD6;stroke-width:3.125;"/><polygon fill="none" points="382.4479,38.0208,403.2813,45.3125,382.4479,52.6042,382.4479,38.0208" style="stroke:#2A9FD6;stroke-width:3.125;"/><!--MD5=[55c35821053f03b01c1404016c4d9bd6]
link User to JPAEntityBase--><path codeLine="16" d="M200.0521,45.3125 C205.125,45.3125 210.1979,45.3125 215.2708,45.3125 " fill="none" id="User-to-JPAEntityBase" style="stroke:#2A9FD6;stroke-width:3.125;"/><polygon fill="none" points="215.3021,38.0208,236.1354,45.3125,215.3021,52.6042,215.3021,38.0208" style="stroke:#2A9FD6;stroke-width:3.125;"/><!--MD5=[fe4bbf0a533745526cabb92046be306f]
link User to AuthnIdentity--><path codeLine="18" d="M143.0182,82.1607 C143.0182,82.1607 122.5,117.0625 112.6771,133.7813 " fill="none" id="User-AuthnIdentity" style="stroke:#2A9FD6;stroke-width:3.125;"/><polygon fill="#2A9FD6" points="105.7396,145.5833,114.08,139.6092,108.3771,141.0922,106.8941,135.3893,105.7396,145.5833" style="stroke:#2A9FD6;stroke-width:3.125;"/><line style="stroke:#2A9FD6;stroke-width:3.125;" x1="108.3771" x2="112.599" y1="141.0922" y2="133.9115"/><polygon fill="#2A9FD6" points="149.3542,71.3854,142.5944,74.6611,143.0182,82.1607,149.7779,78.885,149.3542,71.3854" style="stroke:#2A9FD6;stroke-width:3.125;"/><text fill="#FFFFFF" font-family="Verdana" font-size="12.5" lengthAdjust="spacing" textLength="8.3333" x="130.5443" y="96.6344">1</text><text fill="#FFFFFF" font-family="Verdana" font-size="12.5" lengthAdjust="spacing" textLength="8.3333" x="94.5045" y="129.2861">1</text><!--MD5=[eab3fe7c2931fc515d7f8550f6db46fd]
link User to Settings--><path codeLine="19" d="M185.3676,82.1234 C185.3676,82.1234 211.6146,126.2188 223.2083,145.6875 " fill="none" id="User-Settings" style="stroke:#2A9FD6;stroke-width:3.125;"/><polygon fill="#2A9FD6" points="230.2292,157.4792,229.0094,147.2927,227.563,153.005,221.8507,151.5586,230.2292,157.4792" style="stroke:#2A9FD6;stroke-width:3.125;"/><line style="stroke:#2A9FD6;stroke-width:3.125;" x1="227.563" x2="223.3021" y1="153.005" y2="145.8438"/><polygon fill="#2A9FD6" points="178.9688,71.3854,178.5888,78.8874,185.3676,82.1234,185.7475,74.6215,178.9688,71.3854" style="stroke:#2A9FD6;stroke-width:3.125;"/><text fill="#FFFFFF" font-family="Verdana" font-size="12.5" lengthAdjust="spacing" textLength="8.3333" x="166.637" y="96.6344">1</text><text fill="#FFFFFF" font-family="Verdana" font-size="12.5" lengthAdjust="spacing" textLength="8.3333" x="210.7258" y="141.1101">1</text><!--MD5=[128d2375556d976b49ec7f4ba2969031]
@startuml
!$BGCOLOR = transparent
!include ./puml-theme-cyborg-outline.puml


interface Identifiable {
   +getId() : UUID
}

abstract JPAEntityBase

class AuthnIdentity {
    -foreignUserId: UUID
}

JPAEntityBase -|> Identifiable
User -|> JPAEntityBase

User "1" *- -> "1" AuthnIdentity
User "1" *- -> "1" Settings

@enduml

@startuml



skinparam backgroundColor undefined







skinparam defaultFontName       "Verdana"
skinparam defaultFontSize       12
skinparam dpi                   100
skinparam shadowing             false
skinparam roundcorner           8
skinparam ParticipantPadding    40
skinparam BoxPadding            40
skinparam Padding               5
skinparam ArrowColor            #ADAFAE
skinparam stereotype {
    CBackgroundColor #777777
    CBorderColor #444444
    ABackgroundColor #5F8F00
    ABorderColor #92C233
    IBackgroundColor #a30000
    IBorderColor #D63333
    EBackgroundColor #cc6d00
    EBorderColor #FFA033
    NBackgroundColor #7a29a3
    NBorderColor #AD5CD6
}
skinparam title {
	FontColor	                 #2A9FD6
	BorderColor	                 #777777
	FontSize	    	         20
	BorderRoundCorner            8
	BorderThickness 	         1
	BackgroundColor              undefined
}

skinparam legend {
	BackgroundColor undefined
	BorderColor #777777
	FontColor #ADAFAE
}

skinparam swimlane {
	BorderColor #9933CC
	BorderThickness 2
	TitleBackgroundColor  #444444-#555
	TitleFontColor #2A9FD6
}


skinparam activity {
		FontColor #2A9FD6
	BorderColor #55B2DE
	BackgroundColor undefined
	BarColor #77B300
	StartColor #9933CC
	EndColor #9933CC
	DiamondBackgroundColor undefined
  	DiamondBorderColor #777777
  	DiamondFontColor #777777
}


skinparam participant {
		FontColor #2A9FD6
	BorderColor #55B2DE
	BackgroundColor undefined
	ParticipantBorderThickness 2
}


skinparam actor {
		FontColor #2A9FD6
	BorderColor #55B2DE
	BackgroundColor undefined
	FontColor #2A9FD6
}


skinparam arrow {
	Thickness 3
	Color #2A9FD6
	FontColor #FFF
}


skinparam sequence {
	BorderColor #2A9FD6
	TitleFontColor #2A9FD6
	BackgroundColor undefined
	StartColor #2A9FD6
	EndColor #2A9FD6
	BoxBackgroundColor undefined
	BoxBorderColor #ADAFAE
	BoxFontColor $DARk
	LifeLineBorderColor #555
	LifeLineBorderThickness 2
	LifeLineBackgroundColor undefined
	GroupBorderColor #ADAFAE
	GroupFontColor #ADAFAE
	GroupHeaderFontColor #9933CC
	GroupBackgroundColor undefined
	GroupHeaderBackgroundColor undefined
	DividerBackgroundColor undefined
    DividerBorderColor #ADAFAE
    DividerBorderThickness 2
    DividerFontColor #ADAFAE
	ReferenceBackgroundColor undefined
	ReferenceBorderColor #ADAFAE
	ReferenceFontColor #ADAFAE
	ReferenceHeaderFontColor #9933CC
	ReferenceHeaderBackgroundColor undefined
}


skinparam partition {
	BorderColor #2A9FD6
	FontColor #2A9FD6
	BackgroundColor undefined
}


skinparam collections {
		FontColor #2A9FD6
	BorderColor #55B2DE
	BackgroundColor undefined
}


skinparam control {
		FontColor #2A9FD6
	BorderColor #55B2DE
	BackgroundColor undefined
	FontColor #2A9FD6
}


skinparam entity {
		FontColor #2A9FD6
	BorderColor #55B2DE
	BackgroundColor undefined
	FontColor #2A9FD6
}


skinparam boundary {
		FontColor #2A9FD6
	BorderColor #55B2DE
	BackgroundColor undefined
	FontColor #2A9FD6
}


skinparam agent {
	BackgroundColor undefined
	BorderColor #cc6d00
	FontColor #ADAFAE
}


skinparam note {
	BorderThickness 1
	BackgroundColor undefined
	BorderColor #AD5CD6
	FontColor #AD5CD6
}


skinparam artifact {
	BackgroundColor undefined
	BorderColor #BDBFBE
	FontColor #BDBFBE
}


skinparam component {
		FontColor #2A9FD6
	BorderColor #55B2DE
	BackgroundColor undefined
}


skinparam interface {
	BackgroundColor  undefined
	BorderColor  #CC0000
	FontColor #ADAFAE
}


skinparam storage {
	BackgroundColor undefined
  	BorderColor #FFA033
	FontColor #FF8800
}


skinparam node {
	BackgroundColor  undefined
	BorderColor #ADAFAE
	FontColor #ADAFAE
}


skinparam cloud {
	BackgroundColor undefined
	BorderColor #F2FCFE
	FontColor #ADAFAE
}


skinparam database {
		FontColor #2A9FD6
	BorderColor #55B2DE
	BackgroundColor undefined
	FontColor #2A9FD6
}



skinparam class {
		FontColor #2A9FD6
	BorderColor #55B2DE
	BackgroundColor undefined
	HeaderBackgroundColor #227FAB
	StereotypeFontColor #ADAFAE
	BorderThickness 1
	AttributeFontColor #ADAFAE
	AttributeFontSize 11
}


skinparam object {
		FontColor #2A9FD6
	BorderColor #55B2DE
	BackgroundColor undefined
	StereotypeFontColor #ADAFAE
	BorderThickness 1
	AttributeFontColor #777777
	AttributeFontSize 11
}


skinparam usecase {
		FontColor #2A9FD6
	BorderColor #55B2DE
	BackgroundColor undefined
	BorderThickness 2
	StereotypeFontColor #2A9FD6
}


skinparam rectangle {
		FontColor #2A9FD6
	BorderColor #55B2DE
	BackgroundColor undefined
	BorderThickness 2
	StereotypeFontColor #2A9FD6
}


skinparam package {
	BackgroundColor undefined
  	BorderColor #2A9FD6
	FontColor #2A9FD6
	BorderThickness 2
}


skinparam folder {
	BackgroundColor undefined
  	BorderColor #FF8800
	FontColor #FF8800
	BorderThickness 2
}


skinparam frame {
	BackgroundColor undefined
  	BorderColor #9933CC
	FontColor #9933CC
	BorderThickness 2
}


skinparam state {
		FontColor #2A9FD6
	BorderColor #55B2DE
	BackgroundColor undefined
	StartColor #9933CC
	EndColor #9933CC
	AttributeFontColor #777777
	AttributeFontSize 11
}


skinparam queue {
		FontColor #2A9FD6
	BorderColor #55B2DE
	BackgroundColor undefined
}


skinparam card {
	BackgroundColor undefined
	BorderColor #9933CC
	FontColor #9933CC
}


skinparam file {
	BackgroundColor undefined
	BorderColor #555
	FontColor #555
}




interface Identifiable {
   +getId() : UUID
}

abstract JPAEntityBase

class AuthnIdentity {
    -foreignUserId: UUID
}

JPAEntityBase -|> Identifiable
User -|> JPAEntityBase

User "1" *- -> "1" AuthnIdentity
User "1" *- -> "1" Settings

@enduml

PlantUML version 1.2021.2(Sun Mar 07 11:10:27 UTC 2021)
(GPL source distribution)
Java Runtime: OpenJDK Runtime Environment
JVM: OpenJDK 64-Bit Server VM
Default Encoding: UTF-8
Language: en
Country: null
--></g></svg>