<?xml version="1.0" encoding="UTF-8" standalone="no"?><svg xmlns="http://www.w3.org/2000/svg" xmlns:xlink="http://www.w3.org/1999/xlink" contentScriptType="application/ecmascript" contentStyleType="text/css" height="202px" preserveAspectRatio="none" style="width:516px;height:202px;" version="1.1" viewBox="0 0 516 202" width="516px" zoomAndPan="magnify"><defs><filter height="300%" id="f17dbnoaynk6a5" width="300%" x="-1" y="-1"><feGaussianBlur result="blurOut" stdDeviation="2.0"/><feColorMatrix in="blurOut" result="blurOut2" type="matrix" values="0 0 0 0 0 0 0 0 0 0 0 0 0 0 0 0 0 0 .4 0"/><feOffset dx="4.0" dy="4.0" in="blurOut2" result="blurOut3"/><feBlend in="SourceGraphic" in2="blurOut3" mode="normal"/></filter></defs><g><!--MD5=[791f55d8f7bd660adaade54087ca4a22]
class Identifiable--><rect codeLine="1" fill="#FEFECE" filter="url(#f17dbnoaynk6a5)" height="60.8047" id="Identifiable" style="stroke:#A80036;stroke-width:1.5;" width="102" x="400" y="7"/><ellipse cx="415" cy="23" fill="#B4A7E5" rx="11" ry="11" style="stroke:#A80036;stroke-width:1.0;"/><path d="M410.9219,18.7656 L410.9219,16.6094 L418.3125,16.6094 L418.3125,18.7656 L415.8438,18.7656 L415.8438,26.8438 L418.3125,26.8438 L418.3125,29 L410.9219,29 L410.9219,26.8438 L413.3906,26.8438 L413.3906,18.7656 L410.9219,18.7656 Z " fill="#000000"/><text fill="#000000" font-family="sans-serif" font-size="12" font-style="italic" lengthAdjust="spacing" textLength="70" x="429" y="27.1543">Identifiable</text><line style="stroke:#A80036;stroke-width:1.5;" x1="401" x2="501" y1="39" y2="39"/><line style="stroke:#A80036;stroke-width:1.5;" x1="401" x2="501" y1="47" y2="47"/><ellipse cx="411" cy="58" fill="#84BE84" rx="3" ry="3" style="stroke:#038048;stroke-width:1.0;"/><text fill="#000000" font-family="sans-serif" font-size="11" lengthAdjust="spacing" textLength="75" x="420" y="61.2104">getId() : UUID</text><!--MD5=[08b970128e31e9ef0c0b96878ce54de7]
class Neo4jEntityBase--><rect codeLine="5" fill="#FEFECE" filter="url(#f17dbnoaynk6a5)" height="48" id="Neo4jEntityBase" style="stroke:#A80036;stroke-width:1.5;" width="134" x="231" y="13.5"/><ellipse cx="246" cy="29.5" fill="#A9DCDF" rx="11" ry="11" style="stroke:#A80036;stroke-width:1.0;"/><path d="M246.1094,24.8438 L244.9531,29.9219 L247.2813,29.9219 L246.1094,24.8438 Z M244.625,22.6094 L247.6094,22.6094 L250.9688,35 L248.5156,35 L247.75,31.9375 L244.4688,31.9375 L243.7188,35 L241.2813,35 L244.625,22.6094 Z " fill="#000000"/><text fill="#000000" font-family="sans-serif" font-size="12" font-style="italic" lengthAdjust="spacing" textLength="102" x="260" y="33.6543">Neo4jEntityBase</text><line style="stroke:#A80036;stroke-width:1.5;" x1="232" x2="364" y1="45.5" y2="45.5"/><line style="stroke:#A80036;stroke-width:1.5;" x1="232" x2="364" y1="53.5" y2="53.5"/><!--MD5=[3fc6b740855d64b0cc767fac270895d9]
class AuthnIdentity--><rect codeLine="7" fill="#FEFECE" filter="url(#f17dbnoaynk6a5)" height="60.8047" id="AuthnIdentity" style="stroke:#A80036;stroke-width:1.5;" width="138" x="7" y="128"/><ellipse cx="32.35" cy="144" fill="#ADD1B2" rx="11" ry="11" style="stroke:#A80036;stroke-width:1.0;"/><path d="M35.3188,149.6406 Q34.7406,149.9375 34.1,150.0781 Q33.4594,150.2344 32.7563,150.2344 Q30.2563,150.2344 28.9281,148.5938 Q27.6156,146.9375 27.6156,143.8125 Q27.6156,140.6875 28.9281,139.0313 Q30.2563,137.375 32.7563,137.375 Q33.4594,137.375 34.1,137.5313 Q34.7563,137.6875 35.3188,137.9844 L35.3188,140.7031 Q34.6938,140.125 34.1,139.8594 Q33.5063,139.5781 32.8813,139.5781 Q31.5375,139.5781 30.85,140.6563 Q30.1625,141.7188 30.1625,143.8125 Q30.1625,145.9063 30.85,146.9844 Q31.5375,148.0469 32.8813,148.0469 Q33.5063,148.0469 34.1,147.7813 Q34.6938,147.5 35.3188,146.9219 L35.3188,149.6406 Z " fill="#000000"/><text fill="#000000" font-family="sans-serif" font-size="12" lengthAdjust="spacing" textLength="83" x="48.65" y="148.1543">AuthnIdentity</text><line style="stroke:#A80036;stroke-width:1.5;" x1="8" x2="144" y1="160" y2="160"/><rect fill="none" height="6" style="stroke:#C82930;stroke-width:1.0;" width="6" x="15" y="168"/><text fill="#000000" font-family="sans-serif" font-size="11" lengthAdjust="spacing" textLength="112" x="27" y="174.2104">foreignUserId: UUID</text><line style="stroke:#A80036;stroke-width:1.5;" x1="8" x2="144" y1="180.8047" y2="180.8047"/><!--MD5=[fb0932da17f9982e4848347a102654e2]
class Settings--><rect codeLine="11" fill="#FEFECE" filter="url(#f17dbnoaynk6a5)" height="60.8047" id="Settings" style="stroke:#A80036;stroke-width:1.5;" width="147" x="180.5" y="128"/><ellipse cx="223.85" cy="144" fill="#ADD1B2" rx="11" ry="11" style="stroke:#A80036;stroke-width:1.0;"/><path d="M226.8188,149.6406 Q226.2406,149.9375 225.6,150.0781 Q224.9594,150.2344 224.2563,150.2344 Q221.7563,150.2344 220.4281,148.5938 Q219.1156,146.9375 219.1156,143.8125 Q219.1156,140.6875 220.4281,139.0313 Q221.7563,137.375 224.2563,137.375 Q224.9594,137.375 225.6,137.5313 Q226.2563,137.6875 226.8188,137.9844 L226.8188,140.7031 Q226.1938,140.125 225.6,139.8594 Q225.0063,139.5781 224.3813,139.5781 Q223.0375,139.5781 222.35,140.6563 Q221.6625,141.7188 221.6625,143.8125 Q221.6625,145.9063 222.35,146.9844 Q223.0375,148.0469 224.3813,148.0469 Q225.0063,148.0469 225.6,147.7813 Q226.1938,147.5 226.8188,146.9219 L226.8188,149.6406 Z " fill="#000000"/><text fill="#000000" font-family="sans-serif" font-size="12" lengthAdjust="spacing" textLength="52" x="244.15" y="148.1543">Settings</text><line style="stroke:#A80036;stroke-width:1.5;" x1="181.5" x2="326.5" y1="160" y2="160"/><ellipse cx="191.5" cy="171" rx="3" ry="3" style="stroke:#038048;stroke-width:1.0;fill:none;"/><text fill="#000000" font-family="sans-serif" font-size="11" lengthAdjust="spacing" textLength="121" x="200.5" y="174.2104">displayName?: String</text><line style="stroke:#A80036;stroke-width:1.5;" x1="181.5" x2="326.5" y1="180.8047" y2="180.8047"/><!--MD5=[3fd616f346a44cd59a91eb10b19e157c]
class User--><rect fill="#FEFECE" filter="url(#f17dbnoaynk6a5)" height="48" id="User" style="stroke:#A80036;stroke-width:1.5;" width="61" x="134.5" y="13.5"/><ellipse cx="149.5" cy="29.5" fill="#ADD1B2" rx="11" ry="11" style="stroke:#A80036;stroke-width:1.0;"/><path d="M152.4688,35.1406 Q151.8906,35.4375 151.25,35.5781 Q150.6094,35.7344 149.9063,35.7344 Q147.4063,35.7344 146.0781,34.0938 Q144.7656,32.4375 144.7656,29.3125 Q144.7656,26.1875 146.0781,24.5313 Q147.4063,22.875 149.9063,22.875 Q150.6094,22.875 151.25,23.0313 Q151.9063,23.1875 152.4688,23.4844 L152.4688,26.2031 Q151.8438,25.625 151.25,25.3594 Q150.6563,25.0781 150.0313,25.0781 Q148.6875,25.0781 148,26.1563 Q147.3125,27.2188 147.3125,29.3125 Q147.3125,31.4063 148,32.4844 Q148.6875,33.5469 150.0313,33.5469 Q150.6563,33.5469 151.25,33.2813 Q151.8438,33 152.4688,32.4219 L152.4688,35.1406 Z " fill="#000000"/><text fill="#000000" font-family="sans-serif" font-size="12" lengthAdjust="spacing" textLength="29" x="163.5" y="33.6543">User</text><line style="stroke:#A80036;stroke-width:1.5;" x1="135.5" x2="194.5" y1="45.5" y2="45.5"/><line style="stroke:#A80036;stroke-width:1.5;" x1="135.5" x2="194.5" y1="53.5" y2="53.5"/><!--MD5=[59e4e621f0e9787a6910cefff9f48e41]
link Neo4jEntityBase to Identifiable--><path codeLine="15" d="M365.24,37.5 C370,37.5 374.76,37.5 379.52,37.5 " fill="none" id="Neo4jEntityBase-to-Identifiable" style="stroke:#A80036;stroke-width:1.0;"/><polygon fill="none" points="379.74,30.5,399.74,37.5,379.74,44.5,379.74,30.5" style="stroke:#A80036;stroke-width:1.0;"/><!--MD5=[bc6af1c5d9a125b0e301a2f7e8b55ec9]
link User to Neo4jEntityBase--><path codeLine="16" d="M195.65,37.5 C200.69,37.5 205.73,37.5 210.77,37.5 " fill="none" id="User-to-Neo4jEntityBase" style="stroke:#A80036;stroke-width:1.0;"/><polygon fill="none" points="210.83,30.5,230.83,37.5,210.83,44.5,210.83,30.5" style="stroke:#A80036;stroke-width:1.0;"/><!--MD5=[fe4bbf0a533745526cabb92046be306f]
link User to AuthnIdentity--><path codeLine="18" d="M140.4448,71.3411 C140.4448,71.3411 116.92,102.79 106.07,117.3 " fill="none" id="User-AuthnIdentity" style="stroke:#A80036;stroke-width:1.0;"/><polygon fill="#A80036" points="98.07,127.99,106.6626,123.1768,101.0638,123.9854,100.2552,118.3866,98.07,127.99" style="stroke:#A80036;stroke-width:1.0;"/><line style="stroke:#A80036;stroke-width:1.0;" x1="101.0638" x2="105.855" y1="123.9854" y2="117.585"/><polygon fill="#A80036" points="147.63,61.73,140.8337,64.1405,140.4448,71.3411,147.2411,68.9306,147.63,61.73" style="stroke:#A80036;stroke-width:1.0;"/><text fill="#000000" font-family="sans-serif" font-size="13" lengthAdjust="spacing" textLength="8" x="134.4211" y="81.5473">1</text><text fill="#000000" font-family="sans-serif" font-size="13" lengthAdjust="spacing" textLength="8" x="94.0228" y="116.7781">1</text><!--MD5=[eab3fe7c2931fc515d7f8550f6db46fd]
link User to Settings--><path codeLine="19" d="M189.5552,71.3411 C189.5552,71.3411 213.08,102.79 223.93,117.3 " fill="none" id="User-Settings" style="stroke:#A80036;stroke-width:1.0;"/><polygon fill="#A80036" points="231.93,127.99,229.7448,118.3866,228.9362,123.9854,223.3374,123.1768,231.93,127.99" style="stroke:#A80036;stroke-width:1.0;"/><line style="stroke:#A80036;stroke-width:1.0;" x1="228.9362" x2="224.145" y1="123.9854" y2="117.585"/><polygon fill="#A80036" points="182.37,61.73,182.7589,68.9306,189.5552,71.3411,189.1663,64.1405,182.37,61.73" style="stroke:#A80036;stroke-width:1.0;"/><text fill="#000000" font-family="sans-serif" font-size="13" lengthAdjust="spacing" textLength="8" x="177.6289" y="81.5473">1</text><text fill="#000000" font-family="sans-serif" font-size="13" lengthAdjust="spacing" textLength="8" x="218.2272" y="116.7781">1</text><!--MD5=[3cb2b415e6253101d25614845a232f7e]
@startuml
interface Identifiable {
   +getId() : UUID
}

abstract Neo4jEntityBase

class AuthnIdentity {
    -foreignUserId: UUID
}

class Settings {
    +displayName?: String
}

Neo4jEntityBase -|> Identifiable
User -|> Neo4jEntityBase

User "1" *- -> "1" AuthnIdentity
User "1" *- -> "1" Settings
@enduml

PlantUML version 1.2021.3(Mon Mar 22 16:53:19 UTC 2021)
(GPL source distribution)
Java Runtime: OpenJDK Runtime Environment
JVM: OpenJDK 64-Bit Server VM
Default Encoding: UTF-8
Language: en
Country: null
--></g></svg>